<svg width="336" height="494" viewBox="0 0 336 494" fill="none" xmlns="http://www.w3.org/2000/svg">
<g filter="url(#filter0_d_189_20942)">
<rect x="20" y="16" width="295.1" height="454" rx="66" fill="#E5DEFF"/>
<rect x="12" y="8" width="311.1" height="470" rx="74" stroke="#8F83B8" stroke-width="16" stroke-linejoin="round"/>
</g>
<g clip-path="url(#clip0_189_20942)">
<path d="M131.495 297.637C153.308 297.637 170.99 279.954 170.99 258.142C170.99 236.329 153.308 218.646 131.495 218.646C109.683 218.646 92 236.329 92 258.142C92 279.954 109.683 297.637 131.495 297.637Z" fill="#5B4F88"/>
<path d="M167.952 245.99C189.765 245.99 207.447 228.308 207.447 206.495C207.447 184.683 189.765 167 167.952 167C146.139 167 128.457 184.683 128.457 206.495C128.457 228.308 146.139 245.99 167.952 245.99Z" fill="#5B4F88"/>
<path d="M204.409 297.637C226.222 297.637 243.905 279.954 243.905 258.142C243.905 236.329 226.222 218.646 204.409 218.646C182.597 218.646 164.914 236.329 164.914 258.142C164.914 279.954 182.597 297.637 204.409 297.637Z" fill="#5B4F88"/>
<path d="M167.952 288.523L183.143 318.904H152.762L167.952 288.523Z" fill="#5B4F88"/>
</g>
<path d="M80.6295 53.1864L77.8136 122.223L56.6462 121.252L57.8114 75.3248L50.0435 80.6652L42.7612 64.0614L58.5882 52.2154L80.6295 53.1864ZM144.374 88.2388C144.374 91.0871 144.051 93.9191 143.403 96.7349C142.789 99.5508 141.882 102.253 140.685 104.843C139.487 107.432 138.015 109.843 136.267 112.076C134.551 114.31 132.577 116.252 130.344 117.902C128.11 119.553 125.651 120.848 122.964 121.786C120.31 122.725 117.446 123.194 114.371 123.194C111.264 123.194 108.367 122.725 105.681 121.786C102.994 120.848 100.535 119.553 98.3013 117.902C96.1004 116.252 94.1261 114.31 92.3783 112.076C90.6306 109.843 89.1579 107.432 87.9604 104.843C86.7628 102.253 85.8404 99.5508 85.1931 96.7349C84.5781 93.8867 84.2706 91.0547 84.2706 88.2388C84.2706 85.423 84.5781 82.591 85.1931 79.7427C85.8404 76.8945 86.7628 74.1758 87.9604 71.5865C89.1579 68.9972 90.6306 66.5859 92.3783 64.3527C94.1261 62.0871 96.1004 60.1289 98.3013 58.4782C100.535 56.8276 102.994 55.5329 105.681 54.5943C108.4 53.6557 111.296 53.1864 114.371 53.1864C117.446 53.1864 120.31 53.6557 122.964 54.5943C125.651 55.5329 128.11 56.8276 130.344 58.4782C132.577 60.1289 134.551 62.0871 136.267 64.3527C138.015 66.5859 139.487 68.9972 140.685 71.5865C141.882 74.1758 142.789 76.8945 143.403 79.7427C144.051 82.591 144.374 85.423 144.374 88.2388ZM123.887 89.6953C123.887 88.2712 123.693 86.6853 123.304 84.9375C122.916 83.1897 122.317 81.5552 121.508 80.034C120.699 78.5128 119.663 77.2344 118.401 76.1987C117.138 75.1629 115.633 74.6451 113.886 74.6451C112.105 74.6451 110.584 75.1629 109.322 76.1987C108.06 77.2344 107.008 78.5128 106.166 80.034C105.357 81.5552 104.758 83.1897 104.37 84.9375C103.982 86.6853 103.787 88.2712 103.787 89.6953C103.787 91.1194 103.982 92.7054 104.37 94.4531C104.758 96.2009 105.357 97.8354 106.166 99.3566C107.008 100.878 108.06 102.156 109.322 103.192C110.584 104.228 112.105 104.746 113.886 104.746C115.633 104.746 117.138 104.228 118.401 103.192C119.663 102.156 120.699 100.878 121.508 99.3566C122.317 97.8354 122.916 96.2009 123.304 94.4531C123.693 92.7054 123.887 91.1194 123.887 89.6953Z" fill="#5B4F88"/>
<path d="M243.371 444.814L246.186 375.777L267.354 376.748L266.189 422.675L273.956 417.335L281.239 433.939L265.412 445.785L243.371 444.814ZM179.626 409.761C179.626 406.913 179.949 404.081 180.597 401.265C181.211 398.449 182.118 395.747 183.315 393.157C184.513 390.568 185.985 388.157 187.733 385.924C189.449 383.69 191.423 381.748 193.656 380.098C195.89 378.447 198.349 377.152 201.036 376.214C203.69 375.275 206.554 374.806 209.629 374.806C212.736 374.806 215.633 375.275 218.319 376.214C221.006 377.152 223.465 378.447 225.699 380.098C227.9 381.748 229.874 383.69 231.622 385.924C233.369 388.157 234.842 390.568 236.04 393.157C237.237 395.747 238.16 398.449 238.807 401.265C239.422 404.113 239.729 406.945 239.729 409.761C239.729 412.577 239.422 415.409 238.807 418.257C238.16 421.105 237.237 423.824 236.04 426.414C234.842 429.003 233.369 431.414 231.622 433.647C229.874 435.913 227.9 437.871 225.699 439.522C223.465 441.172 221.006 442.467 218.319 443.406C215.6 444.344 212.704 444.814 209.629 444.814C206.554 444.814 203.69 444.344 201.036 443.406C198.349 442.467 195.89 441.172 193.656 439.522C191.423 437.871 189.449 435.913 187.733 433.647C185.985 431.414 184.513 429.003 183.315 426.413C182.118 423.824 181.211 421.105 180.597 418.257C179.949 415.409 179.626 412.577 179.626 409.761ZM200.113 408.305C200.113 409.729 200.307 411.315 200.696 413.062C201.084 414.81 201.683 416.445 202.492 417.966C203.301 419.487 204.337 420.766 205.599 421.801C206.862 422.837 208.367 423.355 210.114 423.355C211.895 423.355 213.416 422.837 214.678 421.801C215.94 420.766 216.992 419.487 217.834 417.966C218.643 416.445 219.242 414.81 219.63 413.062C220.018 411.315 220.213 409.729 220.213 408.305C220.213 406.881 220.018 405.295 219.63 403.547C219.242 401.799 218.643 400.165 217.834 398.643C216.992 397.122 215.94 395.844 214.678 394.808C213.416 393.772 211.895 393.254 210.114 393.254C208.367 393.254 206.862 393.772 205.599 394.808C204.337 395.844 203.301 397.122 202.492 398.643C201.683 400.165 201.084 401.799 200.696 403.547C200.307 405.295 200.113 406.881 200.113 408.305Z" fill="#5B4F88"/>
<defs>
<filter id="filter0_d_189_20942" x="0" y="0" width="335.1" height="494" filterUnits="userSpaceOnUse" color-interpolation-filters="sRGB">
<feFlood flood-opacity="0" result="BackgroundImageFix"/>
<feColorMatrix in="SourceAlpha" type="matrix" values="0 0 0 0 0 0 0 0 0 0 0 0 0 0 0 0 0 0 127 0" result="hardAlpha"/>
<feOffset dy="4"/>
<feGaussianBlur stdDeviation="2"/>
<feComposite in2="hardAlpha" operator="out"/>
<feColorMatrix type="matrix" values="0 0 0 0 0 0 0 0 0 0 0 0 0 0 0 0 0 0 0.25 0"/>
<feBlend mode="normal" in2="BackgroundImageFix" result="effect1_dropShadow_189_20942"/>
<feBlend mode="normal" in="SourceGraphic" in2="effect1_dropShadow_189_20942" result="shape"/>
</filter>
<clipPath id="clip0_189_20942">
<rect width="151.905" height="151.905" fill="white" transform="translate(92 167)"/>
</clipPath>
</defs>
</svg>
