<svg width="336" height="494" viewBox="0 0 336 494" fill="none" xmlns="http://www.w3.org/2000/svg">
<g filter="url(#filter0_d_189_20645)">
<rect x="20" y="16" width="295.1" height="454" rx="66" fill="#E5DEFF"/>
<rect x="12" y="8" width="311.1" height="470" rx="74" stroke="#8F83B8" stroke-width="16" stroke-linejoin="round"/>
</g>
<g clip-path="url(#clip0_189_20645)">
<path d="M131.495 297.637C153.308 297.637 170.99 279.954 170.99 258.142C170.99 236.329 153.308 218.646 131.495 218.646C109.683 218.646 91.9999 236.329 91.9999 258.142C91.9999 279.954 109.683 297.637 131.495 297.637Z" fill="#5B4F88"/>
<path d="M167.952 245.99C189.765 245.99 207.447 228.308 207.447 206.495C207.447 184.683 189.765 167 167.952 167C146.14 167 128.457 184.683 128.457 206.495C128.457 228.308 146.14 245.99 167.952 245.99Z" fill="#5B4F88"/>
<path d="M204.409 297.637C226.222 297.637 243.904 279.954 243.904 258.142C243.904 236.329 226.222 218.646 204.409 218.646C182.597 218.646 164.914 236.329 164.914 258.142C164.914 279.954 182.597 297.637 204.409 297.637Z" fill="#5B4F88"/>
<path d="M167.952 288.523L183.143 318.904H152.762L167.952 288.523Z" fill="#5B4F88"/>
</g>
<path d="M115.095 77.2667C115.095 79.856 114.626 82.332 113.687 84.6948C112.748 87.0251 111.502 89.226 109.949 91.2974C108.427 93.3365 106.68 95.2299 104.705 96.9777C102.763 98.6931 100.789 100.247 98.7824 101.638H114.124L112.959 121.835L67.5167 120.281V102.609C69.2321 102.027 71.0285 101.331 72.9057 100.522C74.8153 99.6802 76.6763 98.7254 78.4888 97.6574C80.3337 96.5893 82.0653 95.3917 83.6836 94.0647C85.3343 92.7377 86.7746 91.2974 88.0045 89.7439C89.2667 88.1579 90.2539 86.4425 90.966 84.5977C91.7104 82.7528 92.0826 80.7623 92.0826 78.6261C92.0826 77.3962 91.856 76.3119 91.4029 75.3733C90.9821 74.4347 90.3834 73.6579 89.6066 73.043C88.8298 72.3956 87.9235 71.9263 86.8878 71.635C85.8845 71.3114 84.8002 71.1496 83.635 71.1496C82.6641 71.1496 81.6769 71.2628 80.6735 71.4894C79.6702 71.6836 78.683 71.9749 77.7121 72.3633C76.7411 72.7517 75.8186 73.2372 74.9448 73.8198C74.1032 74.37 73.3426 75.0011 72.6629 75.7132L68.3906 56.6819C69.5882 55.4844 70.9637 54.481 72.5173 53.6719C74.0709 52.8627 75.7054 52.2154 77.4208 51.7299C79.1362 51.2121 80.8839 50.8398 82.6641 50.6133C84.4442 50.3867 86.192 50.2734 87.9074 50.2734C91.7266 50.2734 95.2868 50.9693 98.5882 52.361C101.89 53.7204 104.754 55.6138 107.181 58.0413C109.641 60.4364 111.567 63.2846 112.959 66.5859C114.383 69.8873 115.095 73.4475 115.095 77.2667Z" fill="#5B4F88"/>
<path d="M208.905 420.733C208.905 418.144 209.374 415.668 210.313 413.305C211.252 410.975 212.498 408.774 214.051 406.703C215.573 404.664 217.32 402.77 219.295 401.022C221.237 399.307 223.211 397.753 225.218 396.362L209.876 396.362L211.041 376.165L256.483 377.719L256.483 395.391C254.768 395.973 252.972 396.669 251.094 397.478C249.185 398.32 247.324 399.275 245.511 400.343C243.666 401.411 241.935 402.608 240.316 403.935C238.666 405.262 237.225 406.703 235.996 408.256C234.733 409.842 233.746 411.557 233.034 413.402C232.29 415.247 231.917 417.238 231.917 419.374C231.917 420.604 232.144 421.688 232.597 422.627C233.018 423.565 233.617 424.342 234.393 424.957C235.17 425.604 236.076 426.074 237.112 426.365C238.116 426.689 239.2 426.85 240.365 426.85C241.336 426.85 242.323 426.737 243.326 426.511C244.33 426.316 245.317 426.025 246.288 425.637C247.259 425.248 248.181 424.763 249.055 424.18C249.897 423.63 250.657 422.999 251.337 422.287L255.609 441.318C254.412 442.516 253.036 443.519 251.483 444.328C249.929 445.137 248.295 445.785 246.579 446.27C244.864 446.788 243.116 447.16 241.336 447.387C239.556 447.613 237.808 447.727 236.093 447.727C232.273 447.727 228.713 447.031 225.412 445.639C222.11 444.28 219.246 442.386 216.819 439.959C214.359 437.564 212.433 434.715 211.041 431.414C209.617 428.113 208.905 424.552 208.905 420.733Z" fill="#5B4F88"/>
<defs>
<filter id="filter0_d_189_20645" x="0" y="0" width="335.1" height="494" filterUnits="userSpaceOnUse" color-interpolation-filters="sRGB">
<feFlood flood-opacity="0" result="BackgroundImageFix"/>
<feColorMatrix in="SourceAlpha" type="matrix" values="0 0 0 0 0 0 0 0 0 0 0 0 0 0 0 0 0 0 127 0" result="hardAlpha"/>
<feOffset dy="4"/>
<feGaussianBlur stdDeviation="2"/>
<feComposite in2="hardAlpha" operator="out"/>
<feColorMatrix type="matrix" values="0 0 0 0 0 0 0 0 0 0 0 0 0 0 0 0 0 0 0.25 0"/>
<feBlend mode="normal" in2="BackgroundImageFix" result="effect1_dropShadow_189_20645"/>
<feBlend mode="normal" in="SourceGraphic" in2="effect1_dropShadow_189_20645" result="shape"/>
</filter>
<clipPath id="clip0_189_20645">
<rect width="151.905" height="151.905" fill="white" transform="translate(92 167)"/>
</clipPath>
</defs>
</svg>
