<svg width="336" height="494" viewBox="0 0 336 494" fill="none" xmlns="http://www.w3.org/2000/svg">
<g filter="url(#filter0_d_189_20786)">
<rect x="20" y="16" width="295.1" height="454" rx="66" fill="#E5DEFF"/>
<rect x="12" y="8" width="311.1" height="470" rx="74" stroke="#8F83B8" stroke-width="16" stroke-linejoin="round"/>
</g>
<g clip-path="url(#clip0_189_20786)">
<path d="M167.952 167L230.233 242.952L167.952 318.905L105.671 242.952L167.952 167Z" fill="#8F83B8"/>
</g>
<path d="M119.222 98.24C119.222 102.189 118.526 105.781 117.134 109.018C115.742 112.222 113.816 114.973 111.357 117.271C108.929 119.537 106.032 121.301 102.666 122.563C99.3002 123.825 95.659 124.456 91.7427 124.456C88.5385 124.456 85.6417 124.02 83.0525 123.146C80.4955 122.272 78.1975 121.058 76.1585 119.504C74.1518 117.951 72.4202 116.106 70.9637 113.97C69.5073 111.834 68.2935 109.52 67.3225 107.027C66.3839 104.535 65.6881 101.897 65.2349 99.1138C64.7818 96.3304 64.5552 93.5145 64.5552 90.6663C64.5552 87.1708 64.8142 83.7723 65.332 80.471C65.8499 77.1373 66.6429 74.0139 67.7109 71.101C68.8114 68.1881 70.2193 65.5017 71.9347 63.0419C73.6501 60.582 75.6892 58.4782 78.0519 56.7305C80.4146 54.9827 83.1172 53.6233 86.1596 52.6523C89.2344 51.649 92.6814 51.1473 96.5006 51.1473C97.8923 51.1473 99.3164 51.2121 100.773 51.3415C102.229 51.4386 103.686 51.6328 105.142 51.9241C106.599 52.2154 108.007 52.6038 109.366 53.0893C110.758 53.5748 112.069 54.1897 113.299 54.9342L111.842 74.0625C109.544 72.9297 107.052 72.072 104.366 71.4894C101.711 70.8744 99.1222 70.567 96.5977 70.567C94.591 70.567 92.8594 70.8744 91.4029 71.4894C89.9464 72.072 88.7165 72.9135 87.7132 74.0139C86.7098 75.1144 85.9169 76.4414 85.3343 77.995C84.784 79.5162 84.428 81.2154 84.2662 83.0926C86.4023 81.8627 88.6842 80.8917 91.1116 80.1797C93.5391 79.4676 96.0151 79.1116 98.5396 79.1116C101.388 79.1116 104.074 79.5485 106.599 80.4224C109.123 81.2963 111.308 82.5586 113.153 84.2093C115.03 85.8599 116.503 87.8666 117.571 90.2294C118.671 92.5921 119.222 95.2623 119.222 98.24ZM100.773 99.6964C100.773 98.6931 100.546 97.803 100.093 97.0262C99.6724 96.2171 99.106 95.5374 98.394 94.9872C97.7143 94.4046 96.9213 93.9676 96.0151 93.6763C95.1088 93.3527 94.2026 93.1908 93.2963 93.1908C92.3901 93.1908 91.5 93.3527 90.6261 93.6763C89.7522 93.9676 88.9593 94.4046 88.2472 94.9872C87.5675 95.5374 87.0011 96.2171 86.548 97.0262C86.1272 97.803 85.9169 98.6931 85.9169 99.6964C85.9169 100.667 86.1272 101.557 86.548 102.367C87.0011 103.143 87.5675 103.807 88.2472 104.357C88.9593 104.907 89.7522 105.344 90.6261 105.668C91.5 105.959 92.3901 106.105 93.2963 106.105C94.2026 106.105 95.1088 105.959 96.0151 105.668C96.9213 105.344 97.7143 104.907 98.394 104.357C99.106 103.807 99.6724 103.143 100.093 102.367C100.546 101.557 100.773 100.667 100.773 99.6964Z" fill="#8F83B8"/>
<path d="M204.778 399.76C204.778 395.811 205.474 392.219 206.866 388.982C208.258 385.778 210.184 383.027 212.643 380.729C215.071 378.463 217.968 376.699 221.334 375.437C224.7 374.175 228.341 373.544 232.257 373.544C235.462 373.544 238.358 373.98 240.948 374.854C243.504 375.728 245.802 376.942 247.842 378.496C249.848 380.049 251.58 381.894 253.036 384.03C254.493 386.166 255.706 388.48 256.677 390.973C257.616 393.465 258.312 396.103 258.765 398.886C259.218 401.67 259.445 404.485 259.445 407.334C259.445 410.829 259.186 414.228 258.668 417.529C258.15 420.863 257.357 423.986 256.289 426.899C255.189 429.812 253.781 432.498 252.065 434.958C250.35 437.418 248.311 439.522 245.948 441.27C243.585 443.017 240.883 444.377 237.84 445.348C234.766 446.351 231.319 446.853 227.499 446.853C226.108 446.853 224.684 446.788 223.227 446.658C221.771 446.561 220.314 446.367 218.858 446.076C217.401 445.785 215.993 445.396 214.634 444.911C213.242 444.425 211.931 443.81 210.701 443.066L212.158 423.937C214.456 425.07 216.948 425.928 219.634 426.511C222.289 427.126 224.878 427.433 227.402 427.433C229.409 427.433 231.141 427.126 232.597 426.511C234.054 425.928 235.283 425.086 236.287 423.986C237.29 422.886 238.083 421.559 238.666 420.005C239.216 418.484 239.572 416.785 239.734 414.907C237.598 416.137 235.316 417.108 232.888 417.82C230.461 418.532 227.985 418.888 225.46 418.888C222.612 418.888 219.926 418.451 217.401 417.578C214.877 416.704 212.692 415.441 210.847 413.791C208.97 412.14 207.497 410.133 206.429 407.771C205.329 405.408 204.778 402.738 204.778 399.76ZM223.227 398.304C223.227 399.307 223.454 400.197 223.907 400.974C224.328 401.783 224.894 402.463 225.606 403.013C226.286 403.595 227.079 404.032 227.985 404.324C228.891 404.647 229.797 404.809 230.704 404.809C231.61 404.809 232.5 404.647 233.374 404.324C234.248 404.032 235.041 403.595 235.753 403.013C236.432 402.463 236.999 401.783 237.452 400.974C237.873 400.197 238.083 399.307 238.083 398.304C238.083 397.333 237.873 396.443 237.452 395.633C236.999 394.857 236.432 394.193 235.753 393.643C235.041 393.093 234.248 392.656 233.374 392.332C232.5 392.041 231.61 391.895 230.704 391.895C229.797 391.895 228.891 392.041 227.985 392.332C227.079 392.656 226.286 393.093 225.606 393.643C224.894 394.193 224.328 394.857 223.907 395.633C223.454 396.443 223.227 397.333 223.227 398.304Z" fill="#8F83B8"/>
<defs>
<filter id="filter0_d_189_20786" x="0" y="0" width="335.1" height="494" filterUnits="userSpaceOnUse" color-interpolation-filters="sRGB">
<feFlood flood-opacity="0" result="BackgroundImageFix"/>
<feColorMatrix in="SourceAlpha" type="matrix" values="0 0 0 0 0 0 0 0 0 0 0 0 0 0 0 0 0 0 127 0" result="hardAlpha"/>
<feOffset dy="4"/>
<feGaussianBlur stdDeviation="2"/>
<feComposite in2="hardAlpha" operator="out"/>
<feColorMatrix type="matrix" values="0 0 0 0 0 0 0 0 0 0 0 0 0 0 0 0 0 0 0.25 0"/>
<feBlend mode="normal" in2="BackgroundImageFix" result="effect1_dropShadow_189_20786"/>
<feBlend mode="normal" in="SourceGraphic" in2="effect1_dropShadow_189_20786" result="shape"/>
</filter>
<clipPath id="clip0_189_20786">
<rect width="151.905" height="151.905" fill="white" transform="translate(92 167)"/>
</clipPath>
</defs>
</svg>
