<svg width="336" height="494" viewBox="0 0 336 494" fill="none" xmlns="http://www.w3.org/2000/svg">
<g filter="url(#filter0_d_189_21017)">
<rect x="20" y="16" width="295.1" height="454" rx="66" fill="#E5DEFF"/>
<rect x="12" y="8" width="311.1" height="470" rx="74" stroke="#8F83B8" stroke-width="16" stroke-linejoin="round"/>
</g>
<g clip-path="url(#clip0_189_21017)">
<path d="M167.952 167L230.233 242.952L167.952 318.905L105.671 242.952L167.952 167Z" fill="#8F83B8"/>
</g>
<path d="M124.853 86.8795C124.853 91.7991 123.931 96.4922 122.086 100.959C120.273 105.425 117.539 109.342 113.881 112.708L120.581 120.67L102.812 132.127L98.6367 120.67C97.4068 120.929 96.1607 121.123 94.8984 121.252C93.6685 121.382 92.4224 121.446 91.1602 121.446C88.053 121.446 85.0753 121.058 82.2271 120.281C79.3789 119.504 76.7087 118.42 74.2165 117.028C71.7243 115.604 69.4587 113.889 67.4196 111.882C65.3806 109.876 63.6166 107.642 62.1278 105.182C60.6713 102.723 59.5385 100.069 58.7294 97.2204C57.9526 94.3398 57.5642 91.346 57.5642 88.2388C57.5642 85.1641 57.9364 82.1864 58.6808 79.3058C59.4576 76.3929 60.5419 73.6579 61.9336 71.101C63.3577 68.5441 65.0569 66.2137 67.0312 64.1099C69.0379 61.9738 71.2712 60.1451 73.731 58.6239C76.1908 57.0703 78.8449 55.8728 81.6931 55.0312C84.5413 54.1897 87.5352 53.769 90.6747 53.769C95.6914 53.769 100.287 54.5296 104.463 56.0508C108.67 57.572 112.279 59.7567 115.289 62.6049C118.299 65.4531 120.646 68.9325 122.329 73.043C124.012 77.1211 124.853 81.7333 124.853 86.8795ZM101.258 88.2388C101.258 86.75 101.032 85.3097 100.579 83.918C100.158 82.4939 99.5268 81.2478 98.6853 80.1797C97.8438 79.0792 96.7919 78.2054 95.5296 77.558C94.2673 76.9107 92.8108 76.5871 91.1602 76.5871C89.5419 76.5871 88.0854 76.8783 86.7907 77.4609C85.4961 78.0112 84.3795 78.7879 83.4408 79.7913C82.5346 80.7946 81.8225 81.976 81.3047 83.3354C80.8192 84.6948 80.5765 86.1674 80.5765 87.7533C80.5765 89.2422 80.7868 90.7148 81.2076 92.1713C81.6607 93.5954 82.308 94.8901 83.1496 96.0552C83.9911 97.1881 85.043 98.1105 86.3052 98.8225C87.5675 99.5346 89.024 99.8906 90.6747 99.8906C92.2606 99.8906 93.7009 99.5831 94.9955 98.9682C96.3225 98.3209 97.4392 97.4632 98.3454 96.3951C99.284 95.327 99.9961 94.0971 100.482 92.7054C100.999 91.2812 101.258 89.7924 101.258 88.2388Z" fill="#8F83B8"/>
<path d="M199.147 411.121C199.147 406.201 200.069 401.508 201.914 397.041C203.727 392.575 206.461 388.658 210.119 385.292L203.419 377.33L221.188 365.873L225.363 377.33C226.593 377.071 227.839 376.877 229.102 376.748C230.331 376.618 231.578 376.554 232.84 376.554C235.947 376.554 238.925 376.942 241.773 377.719C244.621 378.496 247.291 379.58 249.783 380.972C252.276 382.396 254.541 384.111 256.58 386.118C258.619 388.124 260.383 390.358 261.872 392.818C263.329 395.277 264.462 397.931 265.271 400.78C266.047 403.66 266.436 406.654 266.436 409.761C266.436 412.836 266.064 415.814 265.319 418.694C264.542 421.607 263.458 424.342 262.066 426.899C260.642 429.456 258.943 431.786 256.969 433.89C254.962 436.026 252.729 437.855 250.269 439.376C247.809 440.93 245.155 442.127 242.307 442.969C239.459 443.81 236.465 444.231 233.325 444.231C228.309 444.231 223.713 443.47 219.537 441.949C215.33 440.428 211.721 438.243 208.711 435.395C205.701 432.547 203.354 429.068 201.671 424.957C199.988 420.879 199.147 416.267 199.147 411.121ZM222.742 409.761C222.742 411.25 222.968 412.69 223.421 414.082C223.842 415.506 224.473 416.752 225.315 417.82C226.156 418.921 227.208 419.795 228.47 420.442C229.733 421.089 231.189 421.413 232.84 421.413C234.458 421.413 235.915 421.122 237.209 420.539C238.504 419.989 239.621 419.212 240.559 418.209C241.465 417.205 242.177 416.024 242.695 414.665C243.181 413.305 243.424 411.833 243.424 410.247C243.424 408.758 243.213 407.285 242.792 405.829C242.339 404.405 241.692 403.11 240.85 401.945C240.009 400.812 238.957 399.89 237.695 399.177C236.432 398.465 234.976 398.109 233.325 398.109C231.739 398.109 230.299 398.417 229.004 399.032C227.677 399.679 226.561 400.537 225.655 401.605C224.716 402.673 224.004 403.903 223.518 405.295C223.001 406.719 222.742 408.208 222.742 409.761Z" fill="#8F83B8"/>
<defs>
<filter id="filter0_d_189_21017" x="0" y="0" width="335.1" height="494" filterUnits="userSpaceOnUse" color-interpolation-filters="sRGB">
<feFlood flood-opacity="0" result="BackgroundImageFix"/>
<feColorMatrix in="SourceAlpha" type="matrix" values="0 0 0 0 0 0 0 0 0 0 0 0 0 0 0 0 0 0 127 0" result="hardAlpha"/>
<feOffset dy="4"/>
<feGaussianBlur stdDeviation="2"/>
<feComposite in2="hardAlpha" operator="out"/>
<feColorMatrix type="matrix" values="0 0 0 0 0 0 0 0 0 0 0 0 0 0 0 0 0 0 0.25 0"/>
<feBlend mode="normal" in2="BackgroundImageFix" result="effect1_dropShadow_189_21017"/>
<feBlend mode="normal" in="SourceGraphic" in2="effect1_dropShadow_189_21017" result="shape"/>
</filter>
<clipPath id="clip0_189_21017">
<rect width="151.905" height="151.905" fill="white" transform="translate(92 167)"/>
</clipPath>
</defs>
</svg>
