<svg width="336" height="494" viewBox="0 0 336 494" fill="none" xmlns="http://www.w3.org/2000/svg">
<g filter="url(#filter0_d_189_20924)">
<rect x="20" y="16" width="295.1" height="454" rx="66" fill="#E5DEFF"/>
<rect x="12" y="8" width="311.1" height="470" rx="74" stroke="#8F83B8" stroke-width="16" stroke-linejoin="round"/>
</g>
<g clip-path="url(#clip0_189_20924)">
<path d="M136.052 255.105C160.382 255.105 180.105 235.382 180.105 211.052C180.105 186.723 160.382 167 136.052 167C111.723 167 92 186.723 92 211.052C92 235.382 111.723 255.105 136.052 255.105Z" fill="#8F83B8"/>
<path d="M199.852 255.105C224.181 255.105 243.904 235.382 243.904 211.052C243.904 186.723 224.181 167 199.852 167C175.522 167 155.8 186.723 155.8 211.052C155.8 235.382 175.522 255.105 199.852 255.105Z" fill="#8F83B8"/>
<path d="M167.953 180.671L232.512 240.674L167.953 318.905L103.393 240.674L167.953 180.671Z" fill="#8F83B8"/>
</g>
<path d="M116.974 83.2868C116.974 86.3616 116.731 89.4687 116.246 92.6083C115.76 95.7154 114.999 98.7416 113.964 101.687C112.96 104.6 111.666 107.335 110.08 109.892C108.494 112.449 106.6 114.682 104.4 116.592C102.199 118.469 99.6579 119.958 96.7773 121.058C93.9291 122.158 90.7249 122.709 87.1646 122.709C85.611 122.709 83.9766 122.644 82.2612 122.515C80.5781 122.353 78.8951 122.11 77.2121 121.786C75.5614 121.43 73.9431 120.961 72.3571 120.378C70.7712 119.763 69.3309 118.987 68.0363 118.048L70.5608 99.6964C71.5642 100.279 72.697 100.829 73.9593 101.347C75.2215 101.833 76.5162 102.27 77.8432 102.658C79.1702 103.046 80.4972 103.354 81.8242 103.58C83.1512 103.775 84.4135 103.872 85.611 103.872C87.4883 103.872 89.1066 103.613 90.466 103.095C91.8577 102.545 93.0229 101.768 93.9615 100.765C94.9325 99.7612 95.7093 98.5636 96.2919 97.1719C96.8744 95.7478 97.2952 94.1618 97.5541 92.4141C95.6122 93.4498 93.5731 94.2427 91.4369 94.793C89.3008 95.3432 87.1323 95.6183 84.9314 95.6183C82.2126 95.6183 79.6233 95.1975 77.1635 94.356C74.7037 93.5145 72.5513 92.317 70.7065 90.7634C68.8616 89.1775 67.3889 87.2517 66.2885 84.986C65.1881 82.7204 64.6378 80.1473 64.6378 77.2667C64.6378 73.577 65.3013 70.1948 66.6283 67.12C67.9877 64.0452 69.8326 61.4074 72.1629 59.2065C74.4933 57.0056 77.2444 55.2902 80.4163 54.0603C83.6205 52.8304 87.0675 52.2154 90.7573 52.2154C95.2561 52.2154 99.1401 53.0569 102.409 54.74C105.71 56.3906 108.429 58.6401 110.565 61.4883C112.734 64.3041 114.336 67.5893 115.372 71.3437C116.44 75.0982 116.974 79.0792 116.974 83.2868ZM96.8744 76.1987C96.8744 75.2277 96.6479 74.3538 96.1948 73.577C95.774 72.8002 95.2238 72.1367 94.5441 71.5865C93.8644 71.0363 93.0876 70.6155 92.2137 70.3242C91.3398 70.0329 90.466 69.8873 89.5921 69.8873C88.7182 69.8873 87.8605 70.0329 87.019 70.3242C86.1775 70.5831 85.4169 70.9877 84.7372 71.5379C84.0575 72.0558 83.5073 72.7031 83.0865 73.4799C82.6981 74.2243 82.5039 75.0658 82.5039 76.0045C82.5039 76.9431 82.7143 77.8008 83.135 78.5776C83.5882 79.3544 84.1546 80.0179 84.8343 80.5681C85.514 81.1183 86.2907 81.5552 87.1646 81.8789C88.0385 82.1702 88.9124 82.3158 89.7863 82.3158C90.6602 82.3158 91.5179 82.1702 92.3594 81.8789C93.2009 81.5876 93.9615 81.183 94.6412 80.6652C95.3209 80.115 95.8549 79.4676 96.2433 78.7232C96.6641 77.9788 96.8744 77.1373 96.8744 76.1987Z" fill="#8F83B8"/>
<path d="M207.026 414.713C207.026 411.638 207.269 408.531 207.754 405.392C208.24 402.285 209.001 399.258 210.036 396.313C211.04 393.4 212.334 390.665 213.92 388.108C215.506 385.551 217.4 383.318 219.6 381.408C221.801 379.531 224.342 378.042 227.223 376.942C230.071 375.842 233.275 375.291 236.835 375.291C238.389 375.291 240.023 375.356 241.739 375.485C243.422 375.647 245.105 375.89 246.788 376.214C248.439 376.57 250.057 377.039 251.643 377.622C253.229 378.237 254.669 379.013 255.964 379.952L253.439 398.304C252.436 397.721 251.303 397.171 250.041 396.653C248.778 396.167 247.484 395.73 246.157 395.342C244.83 394.954 243.503 394.646 242.176 394.42C240.849 394.225 239.587 394.128 238.389 394.128C236.512 394.128 234.893 394.387 233.534 394.905C232.142 395.455 230.977 396.232 230.039 397.235C229.068 398.239 228.291 399.436 227.708 400.828C227.126 402.252 226.705 403.838 226.446 405.586C228.388 404.55 230.427 403.757 232.563 403.207C234.699 402.657 236.868 402.382 239.069 402.382C241.787 402.382 244.377 402.802 246.836 403.644C249.296 404.485 251.449 405.683 253.294 407.237C255.138 408.823 256.611 410.748 257.711 413.014C258.812 415.28 259.362 417.853 259.362 420.733C259.362 424.423 258.699 427.805 257.372 430.88C256.012 433.955 254.167 436.593 251.837 438.794C249.507 440.994 246.756 442.71 243.584 443.94C240.379 445.17 236.932 445.785 233.243 445.785C228.744 445.785 224.86 444.943 221.591 443.26C218.29 441.609 215.571 439.36 213.435 436.512C211.266 433.696 209.664 430.411 208.628 426.656C207.56 422.902 207.026 418.921 207.026 414.713ZM227.126 421.801C227.126 422.772 227.352 423.646 227.805 424.423C228.226 425.2 228.776 425.863 229.456 426.414C230.136 426.964 230.912 427.384 231.786 427.676C232.66 427.967 233.534 428.113 234.408 428.113C235.282 428.113 236.14 427.967 236.981 427.676C237.823 427.417 238.583 427.012 239.263 426.462C239.943 425.944 240.493 425.297 240.914 424.52C241.302 423.776 241.496 422.934 241.496 421.996C241.496 421.057 241.286 420.199 240.865 419.422C240.412 418.646 239.845 417.982 239.166 417.432C238.486 416.882 237.709 416.445 236.835 416.121C235.961 415.83 235.088 415.684 234.214 415.684C233.34 415.684 232.482 415.83 231.641 416.121C230.799 416.412 230.039 416.817 229.359 417.335C228.679 417.885 228.145 418.532 227.757 419.277C227.336 420.021 227.126 420.863 227.126 421.801Z" fill="#8F83B8"/>
<defs>
<filter id="filter0_d_189_20924" x="0" y="0" width="335.1" height="494" filterUnits="userSpaceOnUse" color-interpolation-filters="sRGB">
<feFlood flood-opacity="0" result="BackgroundImageFix"/>
<feColorMatrix in="SourceAlpha" type="matrix" values="0 0 0 0 0 0 0 0 0 0 0 0 0 0 0 0 0 0 127 0" result="hardAlpha"/>
<feOffset dy="4"/>
<feGaussianBlur stdDeviation="2"/>
<feComposite in2="hardAlpha" operator="out"/>
<feColorMatrix type="matrix" values="0 0 0 0 0 0 0 0 0 0 0 0 0 0 0 0 0 0 0.25 0"/>
<feBlend mode="normal" in2="BackgroundImageFix" result="effect1_dropShadow_189_20924"/>
<feBlend mode="normal" in="SourceGraphic" in2="effect1_dropShadow_189_20924" result="shape"/>
</filter>
<clipPath id="clip0_189_20924">
<rect width="151.905" height="151.905" fill="white" transform="translate(92 167)"/>
</clipPath>
</defs>
</svg>
