<svg width="336" height="494" viewBox="0 0 336 494" fill="none" xmlns="http://www.w3.org/2000/svg">
<g filter="url(#filter0_d_189_20693)">
<rect x="20" y="16" width="295.1" height="454" rx="66" fill="#E5DEFF"/>
<rect x="12" y="8" width="311.1" height="470" rx="74" stroke="#8F83B8" stroke-width="16" stroke-linejoin="round"/>
</g>
<g clip-path="url(#clip0_189_20693)">
<path d="M136.052 255.105C160.382 255.105 180.105 235.382 180.105 211.052C180.105 186.723 160.382 167 136.052 167C111.723 167 92 186.723 92 211.052C92 235.382 111.723 255.105 136.052 255.105Z" fill="#8F83B8"/>
<path d="M199.852 255.105C224.182 255.105 243.904 235.382 243.904 211.052C243.904 186.723 224.182 167 199.852 167C175.523 167 155.8 186.723 155.8 211.052C155.8 235.382 175.523 255.105 199.852 255.105Z" fill="#8F83B8"/>
<path d="M167.952 180.671L232.512 240.674L167.952 318.905L103.393 240.674L167.952 180.671Z" fill="#8F83B8"/>
</g>
<path d="M116.017 98.5312C116.017 102.836 115.321 106.574 113.93 109.746C112.57 112.886 110.661 115.507 108.201 117.611C105.741 119.682 102.796 121.236 99.365 122.272C95.9665 123.275 92.2282 123.777 88.1501 123.777C86.3052 123.777 84.4118 123.599 82.4699 123.243C80.5279 122.887 78.6021 122.401 76.6925 121.786C74.7829 121.171 72.9219 120.443 71.1094 119.602C69.3292 118.76 67.6624 117.854 66.1088 116.883L67.9537 97.3661C69.1836 98.2076 70.5592 99.0167 72.0804 99.7935C73.6016 100.538 75.1713 101.218 76.7896 101.833C78.4403 102.415 80.091 102.884 81.7416 103.241C83.4247 103.597 85.043 103.775 86.5965 103.775C87.5028 103.775 88.4252 103.71 89.3638 103.58C90.3348 103.419 91.2087 103.143 91.9855 102.755C92.7623 102.367 93.3934 101.816 93.8789 101.104C94.3968 100.392 94.6557 99.4699 94.6557 98.3371C94.6557 97.625 94.332 96.9615 93.6847 96.3465C93.0374 95.7316 92.2606 95.2137 91.3544 94.793C90.4481 94.3398 89.5095 94 88.5385 93.7734C87.5675 93.5145 86.7584 93.385 86.111 93.385C85.6579 93.385 85.1077 93.4174 84.4604 93.4821C83.8454 93.5145 83.2143 93.5792 82.567 93.6763C81.9196 93.7734 81.2885 93.9191 80.6735 94.1133C80.091 94.2751 79.6378 94.4855 79.3142 94.7444L79.6055 80.8594C80.1557 80.9241 80.6735 80.9727 81.159 81.005C81.6445 81.0374 82.1624 81.0536 82.7126 81.0536C83.8454 81.0536 85.0753 80.9565 86.4023 80.7623C87.7294 80.5357 88.9593 80.1635 90.0921 79.6456C91.2249 79.0954 92.1635 78.351 92.9079 77.4124C93.6847 76.4738 94.0731 75.26 94.0731 73.7712C94.0731 72.7031 93.7818 71.8454 93.1992 71.1981C92.6166 70.5184 91.8884 70.0006 91.0145 69.6445C90.173 69.2885 89.2506 69.0458 88.2472 68.9163C87.2439 68.7868 86.3376 68.7221 85.5285 68.7221C82.9068 68.7221 80.3175 69.1752 77.7606 70.0815C75.236 70.9877 73.0028 72.3147 71.0608 74.0625L66.9827 56.3906C69.9604 53.9632 73.3426 52.1183 77.1295 50.856C80.9487 49.5614 84.784 48.9141 88.6356 48.9141C92.1635 48.9141 95.5296 49.4319 98.7338 50.4676C101.97 51.471 104.819 52.976 107.278 54.9827C109.738 56.957 111.696 59.4007 113.153 62.3136C114.609 65.2266 115.338 68.5926 115.338 72.4118C115.338 73.5123 115.176 74.6289 114.852 75.7617C114.528 76.8945 114.092 77.995 113.541 79.0631C112.991 80.1311 112.344 81.1345 111.599 82.0731C110.855 82.9794 110.062 83.7723 109.22 84.452C110.58 85.067 111.696 85.8923 112.57 86.928C113.444 87.9637 114.14 89.1127 114.658 90.375C115.176 91.6373 115.532 92.9805 115.726 94.4046C115.92 95.7963 116.017 97.1719 116.017 98.5312Z" fill="#8F83B8"/>
<path d="M207.983 399.469C207.983 395.164 208.679 391.426 210.07 388.254C211.43 385.114 213.339 382.493 215.799 380.389C218.259 378.318 221.204 376.764 224.635 375.728C228.033 374.725 231.772 374.223 235.85 374.223C237.695 374.223 239.588 374.401 241.53 374.757C243.472 375.113 245.398 375.599 247.307 376.214C249.217 376.829 251.078 377.557 252.891 378.398C254.671 379.24 256.338 380.146 257.891 381.117L256.046 400.634C254.816 399.792 253.441 398.983 251.92 398.206C250.398 397.462 248.829 396.782 247.21 396.167C245.56 395.585 243.909 395.116 242.258 394.759C240.575 394.403 238.957 394.225 237.403 394.225C236.497 394.225 235.575 394.29 234.636 394.42C233.665 394.581 232.791 394.857 232.015 395.245C231.238 395.633 230.607 396.184 230.121 396.896C229.603 397.608 229.344 398.53 229.344 399.663C229.344 400.375 229.668 401.039 230.315 401.653C230.963 402.268 231.739 402.786 232.646 403.207C233.552 403.66 234.491 404 235.461 404.227C236.432 404.485 237.242 404.615 237.889 404.615C238.342 404.615 238.892 404.583 239.54 404.518C240.155 404.485 240.786 404.421 241.433 404.324C242.08 404.227 242.711 404.081 243.326 403.887C243.909 403.725 244.362 403.515 244.686 403.256L244.395 417.141C243.844 417.076 243.326 417.027 242.841 416.995C242.355 416.963 241.838 416.946 241.287 416.946C240.155 416.946 238.925 417.044 237.598 417.238C236.271 417.464 235.041 417.836 233.908 418.354C232.775 418.905 231.836 419.649 231.092 420.588C230.315 421.526 229.927 422.74 229.927 424.229C229.927 425.297 230.218 426.155 230.801 426.802C231.383 427.482 232.112 427.999 232.985 428.355C233.827 428.711 234.749 428.954 235.753 429.084C236.756 429.213 237.662 429.278 238.472 429.278C241.093 429.278 243.682 428.825 246.239 427.919C248.764 427.012 250.997 425.685 252.939 423.938L257.017 441.609C254.04 444.037 250.657 445.882 246.871 447.144C243.051 448.439 239.216 449.086 235.364 449.086C231.836 449.086 228.47 448.568 225.266 447.532C222.03 446.529 219.181 445.024 216.722 443.017C214.262 441.043 212.304 438.599 210.847 435.686C209.391 432.773 208.662 429.407 208.662 425.588C208.662 424.488 208.824 423.371 209.148 422.238C209.472 421.105 209.908 420.005 210.459 418.937C211.009 417.869 211.656 416.866 212.401 415.927C213.145 415.021 213.938 414.228 214.78 413.548C213.42 412.933 212.304 412.108 211.43 411.072C210.556 410.036 209.86 408.887 209.342 407.625C208.824 406.363 208.468 405.02 208.274 403.595C208.08 402.204 207.983 400.828 207.983 399.469Z" fill="#8F83B8"/>
<defs>
<filter id="filter0_d_189_20693" x="0" y="0" width="335.1" height="494" filterUnits="userSpaceOnUse" color-interpolation-filters="sRGB">
<feFlood flood-opacity="0" result="BackgroundImageFix"/>
<feColorMatrix in="SourceAlpha" type="matrix" values="0 0 0 0 0 0 0 0 0 0 0 0 0 0 0 0 0 0 127 0" result="hardAlpha"/>
<feOffset dy="4"/>
<feGaussianBlur stdDeviation="2"/>
<feComposite in2="hardAlpha" operator="out"/>
<feColorMatrix type="matrix" values="0 0 0 0 0 0 0 0 0 0 0 0 0 0 0 0 0 0 0.25 0"/>
<feBlend mode="normal" in2="BackgroundImageFix" result="effect1_dropShadow_189_20693"/>
<feBlend mode="normal" in="SourceGraphic" in2="effect1_dropShadow_189_20693" result="shape"/>
</filter>
<clipPath id="clip0_189_20693">
<rect width="151.905" height="151.905" fill="white" transform="translate(92 167)"/>
</clipPath>
</defs>
</svg>
