<svg width="336" height="494" viewBox="0 0 336 494" fill="none" xmlns="http://www.w3.org/2000/svg">
<g filter="url(#filter0_d_189_20600)">
<rect x="20" y="16" width="295.1" height="454" rx="66" fill="#E5DEFF"/>
<rect x="12" y="8" width="311.1" height="470" rx="74" stroke="#8F83B8" stroke-width="16" stroke-linejoin="round"/>
</g>
<g clip-path="url(#clip0_189_20600)">
<path d="M136.052 255.105C160.382 255.105 180.105 235.382 180.105 211.052C180.105 186.723 160.382 167 136.052 167C111.723 167 92 186.723 92 211.052C92 235.382 111.723 255.105 136.052 255.105Z" fill="#8F83B8"/>
<path d="M199.852 255.105C224.181 255.105 243.904 235.382 243.904 211.052C243.904 186.723 224.181 167 199.852 167C175.523 167 155.8 186.723 155.8 211.052C155.8 235.382 175.523 255.105 199.852 255.105Z" fill="#8F83B8"/>
<path d="M167.952 180.671L232.512 240.674L167.952 318.905L103.393 240.674L167.952 180.671Z" fill="#8F83B8"/>
</g>
<path d="M108.589 53.1864L105.773 122.223L84.606 121.252L85.7712 75.3248L78.0033 80.6652L70.721 64.0614L86.548 52.2154L108.589 53.1864Z" fill="#8F83B8"/>
<path d="M215.411 444.814L218.227 375.777L239.394 376.748L238.229 422.675L245.997 417.335L253.279 433.939L237.452 445.785L215.411 444.814Z" fill="#8F83B8"/>
<defs>
<filter id="filter0_d_189_20600" x="0" y="0" width="335.1" height="494" filterUnits="userSpaceOnUse" color-interpolation-filters="sRGB">
<feFlood flood-opacity="0" result="BackgroundImageFix"/>
<feColorMatrix in="SourceAlpha" type="matrix" values="0 0 0 0 0 0 0 0 0 0 0 0 0 0 0 0 0 0 127 0" result="hardAlpha"/>
<feOffset dy="4"/>
<feGaussianBlur stdDeviation="2"/>
<feComposite in2="hardAlpha" operator="out"/>
<feColorMatrix type="matrix" values="0 0 0 0 0 0 0 0 0 0 0 0 0 0 0 0 0 0 0.25 0"/>
<feBlend mode="normal" in2="BackgroundImageFix" result="effect1_dropShadow_189_20600"/>
<feBlend mode="normal" in="SourceGraphic" in2="effect1_dropShadow_189_20600" result="shape"/>
</filter>
<clipPath id="clip0_189_20600">
<rect width="151.905" height="151.905" fill="white" transform="translate(92 167)"/>
</clipPath>
</defs>
</svg>
