<svg width="336" height="494" viewBox="0 0 336 494" fill="none" xmlns="http://www.w3.org/2000/svg">
<g filter="url(#filter0_d_189_20867)">
<rect x="20" y="16" width="295.1" height="454" rx="66" fill="#E5DEFF"/>
<rect x="12" y="8" width="311.1" height="470" rx="74" stroke="#8F83B8" stroke-width="16" stroke-linejoin="round"/>
</g>
<g clip-path="url(#clip0_189_20867)">
<path d="M167.952 167L222.638 217.129L167.952 271.814L113.266 217.129L167.952 167Z" fill="#5B4F88"/>
<path d="M137.571 287.763C159.384 287.763 177.067 270.081 177.067 248.268C177.067 226.456 159.384 208.773 137.571 208.773C115.759 208.773 98.0762 226.456 98.0762 248.268C98.0762 270.081 115.759 287.763 137.571 287.763Z" fill="#5B4F88"/>
<path d="M198.333 287.763C220.146 287.763 237.829 270.081 237.829 248.268C237.829 226.456 220.146 208.773 198.333 208.773C176.521 208.773 158.838 226.456 158.838 248.268C158.838 270.081 176.521 287.763 198.333 287.763Z" fill="#5B4F88"/>
<path d="M167.952 288.523L183.143 318.904H152.762L167.952 288.523Z" fill="#5B4F88"/>
</g>
<path d="M118.493 101.541C118.493 104.163 118.137 106.509 117.425 108.581C116.713 110.652 115.726 112.497 114.464 114.116C113.234 115.701 111.761 117.061 110.046 118.194C108.363 119.326 106.502 120.265 104.463 121.009C102.456 121.722 100.336 122.256 98.1027 122.612C95.8694 122.935 93.6038 123.097 91.3058 123.097C88.0368 123.097 84.8002 122.66 81.596 121.786C78.4241 120.912 75.5597 119.585 73.0028 117.805C70.4782 115.993 68.423 113.743 66.8371 111.057C65.2835 108.371 64.5067 105.199 64.5067 101.541C64.5067 100.052 64.6847 98.5636 65.0407 97.0748C65.3968 95.5536 65.9146 94.1133 66.5943 92.7539C67.274 91.3945 68.1317 90.1646 69.1674 89.0642C70.2031 87.9637 71.4007 87.0413 72.76 86.2969C70.6239 84.3873 69.0218 82.2026 67.9537 79.7427C66.8856 77.2506 66.3516 74.5804 66.3516 71.7321C66.3516 68.3984 67.0798 65.4855 68.5363 62.9933C70.0251 60.4687 71.9509 58.365 74.3136 56.6819C76.7087 54.9665 79.3951 53.6881 82.3728 52.8465C85.3504 51.9727 88.3281 51.5357 91.3058 51.5357C93.2801 51.5357 95.2545 51.7299 97.2288 52.1183C99.2355 52.5067 101.161 53.0731 103.006 53.8175C104.851 54.5619 106.566 55.5006 108.152 56.6334C109.771 57.7662 111.162 59.0932 112.328 60.6144C113.525 62.1032 114.464 63.7863 115.143 65.6635C115.823 67.5084 116.163 69.5312 116.163 71.7321C116.163 74.5804 115.629 77.2506 114.561 79.7427C113.493 82.2026 111.891 84.3873 109.754 86.2969C112.862 87.9152 115.095 90.0028 116.454 92.5597C117.814 95.1166 118.493 98.1105 118.493 101.541ZM99.365 76.3929C99.365 75.3248 99.1222 74.37 98.6367 73.5285C98.1836 72.6546 97.5686 71.9102 96.7919 71.2952C96.0151 70.6802 95.1412 70.2109 94.1702 69.8873C93.2316 69.5636 92.2768 69.4018 91.3058 69.4018C90.3025 69.4018 89.3153 69.5636 88.3443 69.8873C87.3733 70.2109 86.4994 70.6802 85.7227 71.2952C84.9459 71.9102 84.3147 72.6546 83.8292 73.5285C83.3761 74.37 83.1496 75.3248 83.1496 76.3929C83.1496 77.4609 83.3761 78.4319 83.8292 79.3058C84.3147 80.1473 84.9459 80.8594 85.7227 81.442C86.4994 82.0246 87.3733 82.4777 88.3443 82.8013C89.3153 83.125 90.3025 83.2868 91.3058 83.2868C92.2768 83.2868 93.2316 83.125 94.1702 82.8013C95.1412 82.4777 96.0151 82.0246 96.7919 81.442C97.5686 80.8594 98.1836 80.1473 98.6367 79.3058C99.1222 78.4319 99.365 77.4609 99.365 76.3929ZM99.2679 99.2109C99.2679 98.1429 99.0251 97.1881 98.5396 96.3465C98.0865 95.4727 97.4877 94.7444 96.7433 94.1618C95.9989 93.5792 95.1412 93.1261 94.1702 92.8025C93.2316 92.4788 92.2768 92.317 91.3058 92.317C90.3348 92.317 89.3638 92.4788 88.3929 92.8025C87.4542 93.1261 86.5965 93.5792 85.8198 94.1618C85.043 94.7444 84.4118 95.4727 83.9263 96.3465C83.4732 97.1881 83.2467 98.1429 83.2467 99.2109C83.2467 100.247 83.4732 101.185 83.9263 102.027C84.4118 102.868 85.043 103.58 85.8198 104.163C86.5965 104.746 87.4542 105.199 88.3929 105.522C89.3638 105.846 90.3348 106.008 91.3058 106.008C92.2768 106.008 93.2316 105.846 94.1702 105.522C95.1412 105.199 95.9989 104.746 96.7433 104.163C97.4877 103.58 98.0865 102.868 98.5396 102.027C99.0251 101.185 99.2679 100.247 99.2679 99.2109Z" fill="#5B4F88"/>
<path d="M205.507 396.459C205.507 393.837 205.863 391.491 206.575 389.419C207.287 387.348 208.274 385.503 209.536 383.884C210.766 382.299 212.239 380.939 213.954 379.806C215.637 378.674 217.498 377.735 219.537 376.991C221.544 376.278 223.664 375.744 225.897 375.388C228.131 375.065 230.396 374.903 232.694 374.903C235.963 374.903 239.2 375.34 242.404 376.214C245.576 377.088 248.44 378.415 250.997 380.195C253.522 382.007 255.577 384.257 257.163 386.943C258.717 389.629 259.493 392.801 259.493 396.459C259.493 397.948 259.315 399.436 258.959 400.925C258.603 402.446 258.085 403.887 257.406 405.246C256.726 406.605 255.868 407.835 254.833 408.936C253.797 410.036 252.599 410.959 251.24 411.703C253.376 413.613 254.978 415.797 256.046 418.257C257.114 420.749 257.648 423.42 257.648 426.268C257.648 429.602 256.92 432.515 255.464 435.007C253.975 437.531 252.049 439.635 249.686 441.318C247.291 443.033 244.605 444.312 241.627 445.153C238.65 446.027 235.672 446.464 232.694 446.464C230.72 446.464 228.746 446.27 226.771 445.882C224.765 445.493 222.839 444.927 220.994 444.182C219.149 443.438 217.434 442.499 215.848 441.367C214.229 440.234 212.838 438.907 211.672 437.386C210.475 435.897 209.536 434.214 208.857 432.336C208.177 430.492 207.837 428.469 207.837 426.268C207.837 423.42 208.371 420.749 209.439 418.257C210.507 415.797 212.109 413.613 214.246 411.703C211.138 410.085 208.905 407.997 207.546 405.44C206.186 402.883 205.507 399.89 205.507 396.459ZM224.635 421.607C224.635 422.675 224.878 423.63 225.363 424.472C225.816 425.345 226.431 426.09 227.208 426.705C227.985 427.32 228.859 427.789 229.83 428.113C230.768 428.436 231.723 428.598 232.694 428.598C233.698 428.598 234.685 428.436 235.656 428.113C236.627 427.789 237.501 427.32 238.277 426.705C239.054 426.09 239.685 425.345 240.171 424.472C240.624 423.63 240.85 422.675 240.85 421.607C240.85 420.539 240.624 419.568 240.171 418.694C239.685 417.853 239.054 417.141 238.277 416.558C237.501 415.975 236.627 415.522 235.656 415.199C234.685 414.875 233.698 414.713 232.694 414.713C231.723 414.713 230.768 414.875 229.83 415.199C228.859 415.522 227.985 415.975 227.208 416.558C226.431 417.141 225.816 417.853 225.363 418.694C224.878 419.568 224.635 420.539 224.635 421.607ZM224.732 398.789C224.732 399.857 224.975 400.812 225.46 401.653C225.914 402.527 226.512 403.256 227.257 403.838C228.001 404.421 228.859 404.874 229.83 405.198C230.768 405.521 231.723 405.683 232.694 405.683C233.665 405.683 234.636 405.521 235.607 405.198C236.546 404.874 237.403 404.421 238.18 403.838C238.957 403.256 239.588 402.527 240.074 401.653C240.527 400.812 240.753 399.857 240.753 398.789C240.753 397.753 240.527 396.815 240.074 395.973C239.588 395.132 238.957 394.42 238.18 393.837C237.403 393.254 236.546 392.801 235.607 392.478C234.636 392.154 233.665 391.992 232.694 391.992C231.723 391.992 230.768 392.154 229.83 392.478C228.859 392.801 228.001 393.254 227.257 393.837C226.512 394.42 225.914 395.132 225.46 395.973C224.975 396.815 224.732 397.753 224.732 398.789Z" fill="#5B4F88"/>
<defs>
<filter id="filter0_d_189_20867" x="0" y="0" width="335.1" height="494" filterUnits="userSpaceOnUse" color-interpolation-filters="sRGB">
<feFlood flood-opacity="0" result="BackgroundImageFix"/>
<feColorMatrix in="SourceAlpha" type="matrix" values="0 0 0 0 0 0 0 0 0 0 0 0 0 0 0 0 0 0 127 0" result="hardAlpha"/>
<feOffset dy="4"/>
<feGaussianBlur stdDeviation="2"/>
<feComposite in2="hardAlpha" operator="out"/>
<feColorMatrix type="matrix" values="0 0 0 0 0 0 0 0 0 0 0 0 0 0 0 0 0 0 0.25 0"/>
<feBlend mode="normal" in2="BackgroundImageFix" result="effect1_dropShadow_189_20867"/>
<feBlend mode="normal" in="SourceGraphic" in2="effect1_dropShadow_189_20867" result="shape"/>
</filter>
<clipPath id="clip0_189_20867">
<rect width="151.905" height="151.905" fill="white" transform="translate(92 167)"/>
</clipPath>
</defs>
</svg>
