<svg width="336" height="494" viewBox="0 0 336 494" fill="none" xmlns="http://www.w3.org/2000/svg">
<g filter="url(#filter0_d_189_20966)">
<rect x="20" y="16" width="295.1" height="454" rx="66" fill="#E5DEFF"/>
<rect x="12" y="8" width="311.1" height="470" rx="74" stroke="#8F83B8" stroke-width="16" stroke-linejoin="round"/>
</g>
<g clip-path="url(#clip0_189_20966)">
<path d="M167.952 167L222.638 217.129L167.952 271.814L113.266 217.129L167.952 167Z" fill="#5B4F88"/>
<path d="M137.571 287.763C159.384 287.763 177.067 270.081 177.067 248.268C177.067 226.456 159.384 208.773 137.571 208.773C115.759 208.773 98.0762 226.456 98.0762 248.268C98.0762 270.081 115.759 287.763 137.571 287.763Z" fill="#5B4F88"/>
<path d="M198.333 287.763C220.146 287.763 237.829 270.081 237.829 248.268C237.829 226.456 220.146 208.773 198.333 208.773C176.521 208.773 158.838 226.456 158.838 248.268C158.838 270.081 176.521 287.763 198.333 287.763Z" fill="#5B4F88"/>
<path d="M167.952 288.523L183.143 318.904H152.762L167.952 288.523Z" fill="#5B4F88"/>
</g>
<path d="M114.998 82.9955C114.998 84.9051 114.998 86.7985 114.998 88.6758C114.998 90.553 114.901 92.4464 114.706 94.356C114.35 98.4018 113.477 102.237 112.085 105.862C110.693 109.455 108.8 112.61 106.405 115.329C104.042 118.048 101.161 120.2 97.7628 121.786C94.3644 123.372 90.4643 124.165 86.0625 124.165C84.3471 124.165 82.5508 124.02 80.6735 123.728C78.8287 123.437 76.9838 123 75.139 122.417C73.3265 121.835 71.5787 121.123 69.8956 120.281C68.245 119.407 66.7723 118.404 65.4777 117.271L68.4877 97.1719C70.3973 99.0167 72.5173 100.522 74.8477 101.687C77.178 102.82 79.7188 103.386 82.4699 103.386C84.25 103.386 85.755 103.127 86.9849 102.609C88.2148 102.092 89.2344 101.379 90.0435 100.473C90.8527 99.567 91.4838 98.5151 91.9369 97.3175C92.4224 96.0876 92.7623 94.793 92.9565 93.4336C93.183 92.0419 93.3125 90.6177 93.3449 89.1613C93.4096 87.7048 93.442 86.2645 93.442 84.8404C93.442 79.6942 93.183 74.5804 92.6652 69.4989C92.1473 64.385 91.6942 59.2712 91.3058 54.1574L113.541 52.7009C114.512 62.7991 114.998 72.8973 114.998 82.9955Z" fill="#5B4F88"/>
<path d="M209.002 415.004C209.002 413.095 209.002 411.201 209.002 409.324C209.002 407.447 209.099 405.554 209.294 403.644C209.65 399.598 210.523 395.763 211.915 392.138C213.307 388.545 215.2 385.39 217.595 382.671C219.958 379.952 222.839 377.8 226.237 376.214C229.636 374.628 233.536 373.835 237.938 373.835C239.653 373.835 241.449 373.98 243.326 374.272C245.171 374.563 247.016 375 248.861 375.583C250.674 376.165 252.421 376.877 254.104 377.719C255.755 378.593 257.228 379.596 258.522 380.729L255.512 400.828C253.603 398.983 251.483 397.478 249.152 396.313C246.822 395.18 244.281 394.614 241.53 394.614C239.75 394.614 238.245 394.873 237.015 395.391C235.785 395.908 234.766 396.621 233.956 397.527C233.147 398.433 232.516 399.485 232.063 400.682C231.578 401.912 231.238 403.207 231.044 404.566C230.817 405.958 230.688 407.382 230.655 408.839C230.59 410.295 230.558 411.735 230.558 413.16C230.558 418.306 230.817 423.42 231.335 428.501C231.853 433.615 232.306 438.729 232.694 443.843L210.459 445.299C209.488 435.201 209.002 425.103 209.002 415.004Z" fill="#5B4F88"/>
<defs>
<filter id="filter0_d_189_20966" x="0" y="0" width="335.1" height="494" filterUnits="userSpaceOnUse" color-interpolation-filters="sRGB">
<feFlood flood-opacity="0" result="BackgroundImageFix"/>
<feColorMatrix in="SourceAlpha" type="matrix" values="0 0 0 0 0 0 0 0 0 0 0 0 0 0 0 0 0 0 127 0" result="hardAlpha"/>
<feOffset dy="4"/>
<feGaussianBlur stdDeviation="2"/>
<feComposite in2="hardAlpha" operator="out"/>
<feColorMatrix type="matrix" values="0 0 0 0 0 0 0 0 0 0 0 0 0 0 0 0 0 0 0.25 0"/>
<feBlend mode="normal" in2="BackgroundImageFix" result="effect1_dropShadow_189_20966"/>
<feBlend mode="normal" in="SourceGraphic" in2="effect1_dropShadow_189_20966" result="shape"/>
</filter>
<clipPath id="clip0_189_20966">
<rect width="151.905" height="151.905" fill="white" transform="translate(92 167)"/>
</clipPath>
</defs>
</svg>
