<svg width="336" height="494" viewBox="0 0 336 494" fill="none" xmlns="http://www.w3.org/2000/svg">
<g filter="url(#filter0_d_189_20597)">
<rect x="20" y="16" width="295.1" height="454" rx="66" fill="#E5DEFF"/>
<rect x="12" y="8" width="311.1" height="470" rx="74" stroke="#8F83B8" stroke-width="16" stroke-linejoin="round"/>
</g>
<g clip-path="url(#clip0_189_20597)">
<path d="M167.952 167L222.638 217.129L167.952 271.814L113.266 217.129L167.952 167Z" fill="#5B4F88"/>
<path d="M137.571 287.763C159.384 287.763 177.067 270.081 177.067 248.268C177.067 226.456 159.384 208.773 137.571 208.773C115.759 208.773 98.0762 226.456 98.0762 248.268C98.0762 270.081 115.759 287.763 137.571 287.763Z" fill="#5B4F88"/>
<path d="M198.333 287.763C220.146 287.763 237.829 270.081 237.829 248.268C237.829 226.456 220.146 208.773 198.333 208.773C176.521 208.773 158.838 226.456 158.838 248.268C158.838 270.081 176.521 287.763 198.333 287.763Z" fill="#5B4F88"/>
<path d="M167.952 288.523L183.143 318.904H152.762L167.952 288.523Z" fill="#5B4F88"/>
</g>
<path d="M108.589 53.1864L105.773 122.223L84.606 121.252L85.7712 75.3248L78.0033 80.6652L70.721 64.0614L86.548 52.2154L108.589 53.1864Z" fill="#5B4F88"/>
<path d="M215.411 444.814L218.227 375.777L239.394 376.748L238.229 422.675L245.997 417.335L253.279 433.939L237.452 445.785L215.411 444.814Z" fill="#5B4F88"/>
<defs>
<filter id="filter0_d_189_20597" x="0" y="0" width="335.1" height="494" filterUnits="userSpaceOnUse" color-interpolation-filters="sRGB">
<feFlood flood-opacity="0" result="BackgroundImageFix"/>
<feColorMatrix in="SourceAlpha" type="matrix" values="0 0 0 0 0 0 0 0 0 0 0 0 0 0 0 0 0 0 127 0" result="hardAlpha"/>
<feOffset dy="4"/>
<feGaussianBlur stdDeviation="2"/>
<feComposite in2="hardAlpha" operator="out"/>
<feColorMatrix type="matrix" values="0 0 0 0 0 0 0 0 0 0 0 0 0 0 0 0 0 0 0.25 0"/>
<feBlend mode="normal" in2="BackgroundImageFix" result="effect1_dropShadow_189_20597"/>
<feBlend mode="normal" in="SourceGraphic" in2="effect1_dropShadow_189_20597" result="shape"/>
</filter>
<clipPath id="clip0_189_20597">
<rect width="151.905" height="151.905" fill="white" transform="translate(92 167)"/>
</clipPath>
</defs>
</svg>
