<svg width="336" height="494" viewBox="0 0 336 494" fill="none" xmlns="http://www.w3.org/2000/svg">
<g filter="url(#filter0_d_189_20735)">
<rect x="20" y="16" width="295.1" height="454" rx="66" fill="#E5DEFF"/>
<rect x="12" y="8" width="311.1" height="470" rx="74" stroke="#8F83B8" stroke-width="16" stroke-linejoin="round"/>
</g>
<g clip-path="url(#clip0_189_20735)">
<path d="M167.952 167L222.638 217.129L167.952 271.814L113.266 217.129L167.952 167Z" fill="#5B4F88"/>
<path d="M137.571 287.763C159.384 287.763 177.067 270.081 177.067 248.268C177.067 226.456 159.384 208.773 137.571 208.773C115.759 208.773 98.0762 226.456 98.0762 248.268C98.0762 270.081 115.759 287.763 137.571 287.763Z" fill="#5B4F88"/>
<path d="M198.333 287.763C220.146 287.763 237.829 270.081 237.829 248.268C237.829 226.456 220.146 208.773 198.333 208.773C176.521 208.773 158.838 226.456 158.838 248.268C158.838 270.081 176.521 287.763 198.333 287.763Z" fill="#5B4F88"/>
<path d="M167.952 288.523L183.143 318.904H152.762L167.952 288.523Z" fill="#5B4F88"/>
</g>
<path d="M116.843 98.5312C116.843 102.739 116.082 106.396 114.561 109.503C113.072 112.61 111.033 115.184 108.444 117.223C105.854 119.262 102.812 120.783 99.3164 121.786C95.8209 122.79 92.0826 123.291 88.1016 123.291C86.192 123.291 84.3147 123.162 82.4699 122.903C80.625 122.612 78.7963 122.239 76.9838 121.786C75.2037 121.301 73.4235 120.751 71.6434 120.136C69.8956 119.521 68.1317 118.857 66.3516 118.145L68.1964 98.8225C69.3616 99.4699 70.6077 100.069 71.9347 100.619C73.2617 101.169 74.6211 101.638 76.0128 102.027C77.4369 102.415 78.861 102.723 80.2852 102.949C81.7416 103.176 83.1496 103.289 84.5089 103.289C85.3181 103.289 86.3052 103.224 87.4704 103.095C88.6356 102.933 89.7522 102.658 90.8203 102.27C91.8884 101.849 92.7946 101.299 93.5391 100.619C94.3158 99.9068 94.7042 98.9844 94.7042 97.8516C94.7042 96.7835 94.3968 95.861 93.7818 95.0843C93.1992 94.3075 92.4224 93.6763 91.4515 93.1908C90.5128 92.673 89.4448 92.2684 88.2472 91.9771C87.0497 91.6858 85.8359 91.4593 84.606 91.2974C83.4085 91.1356 82.2595 91.0385 81.159 91.0061C80.091 90.9738 79.2009 90.9576 78.4888 90.9576C77.0324 90.9576 75.5435 91.0223 74.0223 91.1518C72.5335 91.2812 71.077 91.5402 69.6529 91.9286L71.5949 52.7009L110.92 51.6328L111.988 71.9263L87.6161 70.567L87.1306 79.2087C88.5871 78.8527 90.0435 78.5937 91.5 78.4319C92.9565 78.2377 94.4129 78.1406 95.8694 78.1406C98.8147 78.1406 101.55 78.6261 104.074 79.5971C106.631 80.5357 108.848 81.8951 110.725 83.6752C112.635 85.4554 114.124 87.6077 115.192 90.1323C116.292 92.6244 116.843 95.4241 116.843 98.5312Z" fill="#5B4F88"/>
<path d="M207.157 399.469C207.157 395.261 207.918 391.604 209.439 388.497C210.928 385.39 212.967 382.816 215.556 380.777C218.146 378.738 221.188 377.217 224.684 376.214C228.179 375.21 231.917 374.709 235.898 374.709C237.808 374.709 239.685 374.838 241.53 375.097C243.375 375.388 245.204 375.761 247.016 376.214C248.796 376.699 250.576 377.249 252.357 377.864C254.104 378.479 255.868 379.143 257.648 379.855L255.804 399.177C254.638 398.53 253.392 397.931 252.065 397.381C250.738 396.831 249.379 396.362 247.987 395.973C246.563 395.585 245.139 395.277 243.715 395.051C242.258 394.824 240.85 394.711 239.491 394.711C238.682 394.711 237.695 394.776 236.53 394.905C235.364 395.067 234.248 395.342 233.18 395.73C232.112 396.151 231.205 396.701 230.461 397.381C229.684 398.093 229.296 399.016 229.296 400.148C229.296 401.217 229.603 402.139 230.218 402.916C230.801 403.693 231.578 404.324 232.549 404.809C233.487 405.327 234.555 405.732 235.753 406.023C236.95 406.314 238.164 406.541 239.394 406.703C240.592 406.864 241.741 406.961 242.841 406.994C243.909 407.026 244.799 407.042 245.511 407.042C246.968 407.042 248.456 406.978 249.978 406.848C251.467 406.719 252.923 406.46 254.347 406.071L252.405 445.299L213.08 446.367L212.012 426.074L236.384 427.433L236.869 418.791C235.413 419.147 233.956 419.406 232.5 419.568C231.044 419.762 229.587 419.859 228.131 419.859C225.185 419.859 222.45 419.374 219.926 418.403C217.369 417.464 215.152 416.105 213.275 414.325C211.365 412.545 209.876 410.392 208.808 407.868C207.708 405.376 207.157 402.576 207.157 399.469Z" fill="#5B4F88"/>
<defs>
<filter id="filter0_d_189_20735" x="0" y="0" width="335.1" height="494" filterUnits="userSpaceOnUse" color-interpolation-filters="sRGB">
<feFlood flood-opacity="0" result="BackgroundImageFix"/>
<feColorMatrix in="SourceAlpha" type="matrix" values="0 0 0 0 0 0 0 0 0 0 0 0 0 0 0 0 0 0 127 0" result="hardAlpha"/>
<feOffset dy="4"/>
<feGaussianBlur stdDeviation="2"/>
<feComposite in2="hardAlpha" operator="out"/>
<feColorMatrix type="matrix" values="0 0 0 0 0 0 0 0 0 0 0 0 0 0 0 0 0 0 0.25 0"/>
<feBlend mode="normal" in2="BackgroundImageFix" result="effect1_dropShadow_189_20735"/>
<feBlend mode="normal" in="SourceGraphic" in2="effect1_dropShadow_189_20735" result="shape"/>
</filter>
<clipPath id="clip0_189_20735">
<rect width="151.905" height="151.905" fill="white" transform="translate(92 167)"/>
</clipPath>
</defs>
</svg>
