<?xml version="1.0" encoding="utf-8"?>
<!-- Generator: Adobe Illustrator 28.5.0, SVG Export Plug-In . SVG Version: 9.03 Build 54727)  -->
<svg version="1.0" id="Layer_1" xmlns="http://www.w3.org/2000/svg" xmlns:xlink="http://www.w3.org/1999/xlink" x="0px" y="0px"
	 viewBox="0 0 209 353" style="enable-background:new 0 0 209 353;" xml:space="preserve">
<style type="text/css">
	.st0{fill:#E5DDEE;}
	.st1{fill:none;stroke:#8F83B8;stroke-width:9;stroke-linejoin:round;}
</style>
<g>
	<path class="st0" d="M55,0h99c30.4,0,55,24.6,55,55v243c0,30.4-24.6,55-55,55H55c-30.4,0-55-24.6-55-55V55C0,24.6,24.6,0,55,0z"/>
	<path class="st1" d="M55,4.5h99c27.9,0,50.5,22.6,50.5,50.5v243c0,27.9-22.6,50.5-50.5,50.5H55c-27.9,0-50.5-22.6-50.5-50.5V55
		C4.5,27.1,27.1,4.5,55,4.5z"/>
</g>
</svg>
