<?xml version="1.0" encoding="utf-8"?>
<!-- Generator: Adobe Illustrator 28.5.0, SVG Export Plug-In . SVG Version: 9.03 Build 54727)  -->
<svg version="1.0" id="Layer_1" xmlns="http://www.w3.org/2000/svg" xmlns:xlink="http://www.w3.org/1999/xlink" x="0px" y="0px"
	 viewBox="0 0 1151.4 364.5" style="enable-background:new 0 0 1151.4 364.5;" xml:space="preserve">
<style type="text/css">
	.st0{fill:#E5DDEE;}
	.st1{fill:none;stroke:#8F83B8;stroke-width:9;stroke-linejoin:round;}
</style>
<g>
	<path class="st0" d="M58,4.5h99c30.4,0,55,24.6,55,55v243c0,30.4-24.6,55-55,55H58c-30.4,0-55-24.6-55-55v-243
		C3,29.2,27.6,4.5,58,4.5z"/>
	<path class="st1" d="M58,9h99c27.9,0,50.5,22.6,50.5,50.5v243c0,27.9-22.6,50.5-50.5,50.5H58c-27.9,0-50.5-22.6-50.5-50.5v-243
		C7.5,31.6,30.1,9,58,9z"/>
</g>
<g>
	<path class="st0" d="M94,4.5h99c30.4,0,55,24.6,55,55v243c0,30.4-24.6,55-55,55H94c-30.4,0-55-24.6-55-55v-243
		C39,29.2,63.6,4.5,94,4.5z"/>
	<path class="st1" d="M94,9h99c27.9,0,50.5,22.6,50.5,50.5v243c0,27.9-22.6,50.5-50.5,50.5H94c-27.9,0-50.5-22.6-50.5-50.5v-243
		C43.5,31.6,66.1,9,94,9z"/>
</g>
<g>
	<path class="st0" d="M130,4.5h99c30.4,0,55,24.6,55,55v243c0,30.4-24.6,55-55,55h-99c-30.4,0-55-24.6-55-55v-243
		C75,29.2,99.6,4.5,130,4.5z"/>
	<path class="st1" d="M130,9h99c27.9,0,50.5,22.6,50.5,50.5v243c0,27.9-22.6,50.5-50.5,50.5h-99c-27.9,0-50.5-22.6-50.5-50.5v-243
		C79.5,31.6,102.1,9,130,9z"/>
</g>
<g>
	<path class="st0" d="M166,4.5h99c30.4,0,55,24.6,55,55v243c0,30.4-24.6,55-55,55h-99c-30.4,0-55-24.6-55-55v-243
		C111,29.2,135.6,4.5,166,4.5z"/>
	<path class="st1" d="M166,9h99c27.9,0,50.5,22.6,50.5,50.5v243c0,27.9-22.6,50.5-50.5,50.5h-99c-27.9,0-50.5-22.6-50.5-50.5v-243
		C115.5,31.6,138.1,9,166,9z"/>
</g>
<g>
	<path class="st0" d="M202,4.5h99c30.4,0,55,24.6,55,55v243c0,30.4-24.6,55-55,55h-99c-30.4,0-55-24.6-55-55v-243
		C147,29.2,171.6,4.5,202,4.5z"/>
	<path class="st1" d="M202,9h99c27.9,0,50.5,22.6,50.5,50.5v243c0,27.9-22.6,50.5-50.5,50.5h-99c-27.9,0-50.5-22.6-50.5-50.5v-243
		C151.5,31.6,174.1,9,202,9z"/>
</g>
<g>
	<path class="st0" d="M238,4.5h99c30.4,0,55,24.6,55,55v243c0,30.4-24.6,55-55,55h-99c-30.4,0-55-24.6-55-55v-243
		C183,29.2,207.6,4.5,238,4.5z"/>
	<path class="st1" d="M238,9h99c27.9,0,50.5,22.6,50.5,50.5v243c0,27.9-22.6,50.5-50.5,50.5h-99c-27.9,0-50.5-22.6-50.5-50.5v-243
		C187.5,31.6,210.1,9,238,9z"/>
</g>
<g>
	<path class="st0" d="M274,4.5h99c30.4,0,55,24.6,55,55v243c0,30.4-24.6,55-55,55h-99c-30.4,0-55-24.6-55-55v-243
		C219,29.2,243.6,4.5,274,4.5z"/>
	<path class="st1" d="M274,9h99c27.9,0,50.5,22.6,50.5,50.5v243c0,27.9-22.6,50.5-50.5,50.5h-99c-27.9,0-50.5-22.6-50.5-50.5v-243
		C223.5,31.6,246.1,9,274,9z"/>
</g>
<g>
	<path class="st0" d="M310,4.5h99c30.4,0,55,24.6,55,55v243c0,30.4-24.6,55-55,55h-99c-30.4,0-55-24.6-55-55v-243
		C255,29.2,279.6,4.5,310,4.5z"/>
	<path class="st1" d="M310,9h99c27.9,0,50.5,22.6,50.5,50.5v243c0,27.9-22.6,50.5-50.5,50.5h-99c-27.9,0-50.5-22.6-50.5-50.5v-243
		C259.5,31.6,282.1,9,310,9z"/>
</g>
<g>
	<path class="st0" d="M346,4.5h99c30.4,0,55,24.6,55,55v243c0,30.4-24.6,55-55,55h-99c-30.4,0-55-24.6-55-55v-243
		C291,29.2,315.6,4.5,346,4.5z"/>
	<path class="st1" d="M346,9h99c27.9,0,50.5,22.6,50.5,50.5v243c0,27.9-22.6,50.5-50.5,50.5h-99c-27.9,0-50.5-22.6-50.5-50.5v-243
		C295.5,31.6,318.1,9,346,9z"/>
</g>
<g>
	<path class="st0" d="M382,4.5h99c30.4,0,55,24.6,55,55v243c0,30.4-24.6,55-55,55h-99c-30.4,0-55-24.6-55-55v-243
		C327,29.2,351.6,4.5,382,4.5z"/>
	<path class="st1" d="M382,9h99c27.9,0,50.5,22.6,50.5,50.5v243c0,27.9-22.6,50.5-50.5,50.5h-99c-27.9,0-50.5-22.6-50.5-50.5v-243
		C331.5,31.6,354.1,9,382,9z"/>
</g>
<g>
	<path class="st0" d="M418,4.5h99c30.4,0,55,24.6,55,55v243c0,30.4-24.6,55-55,55h-99c-30.4,0-55-24.6-55-55v-243
		C363,29.2,387.6,4.5,418,4.5z"/>
	<path class="st1" d="M418,9h99c27.9,0,50.5,22.6,50.5,50.5v243c0,27.9-22.6,50.5-50.5,50.5h-99c-27.9,0-50.5-22.6-50.5-50.5v-243
		C367.5,31.6,390.1,9,418,9z"/>
</g>
<g>
	<path class="st0" d="M454,4.5h99c30.4,0,55,24.6,55,55v243c0,30.4-24.6,55-55,55h-99c-30.4,0-55-24.6-55-55v-243
		C399,29.2,423.6,4.5,454,4.5z"/>
	<path class="st1" d="M454,9h99c27.9,0,50.5,22.6,50.5,50.5v243c0,27.9-22.6,50.5-50.5,50.5h-99c-27.9,0-50.5-22.6-50.5-50.5v-243
		C403.5,31.6,426.1,9,454,9z"/>
</g>
<g>
	<path class="st0" d="M490,4.5h99c30.4,0,55,24.6,55,55v243c0,30.4-24.6,55-55,55h-99c-30.4,0-55-24.6-55-55v-243
		C435,29.2,459.6,4.5,490,4.5z"/>
	<path class="st1" d="M490,9h99c27.9,0,50.5,22.6,50.5,50.5v243c0,27.9-22.6,50.5-50.5,50.5h-99c-27.9,0-50.5-22.6-50.5-50.5v-243
		C439.5,31.6,462.1,9,490,9z"/>
</g>
<g>
	<path class="st0" d="M526,4.5h99c30.4,0,55,24.6,55,55v243c0,30.4-24.6,55-55,55h-99c-30.4,0-55-24.6-55-55v-243
		C471,29.2,495.6,4.5,526,4.5z"/>
	<path class="st1" d="M526,9h99c27.9,0,50.5,22.6,50.5,50.5v243c0,27.9-22.6,50.5-50.5,50.5h-99c-27.9,0-50.5-22.6-50.5-50.5v-243
		C475.5,31.6,498.1,9,526,9z"/>
</g>
<g>
	<path class="st0" d="M562,4.5h99c30.4,0,55,24.6,55,55v243c0,30.4-24.6,55-55,55h-99c-30.4,0-55-24.6-55-55v-243
		C507,29.2,531.6,4.5,562,4.5z"/>
	<path class="st1" d="M562,9h99c27.9,0,50.5,22.6,50.5,50.5v243c0,27.9-22.6,50.5-50.5,50.5h-99c-27.9,0-50.5-22.6-50.5-50.5v-243
		C511.5,31.6,534.1,9,562,9z"/>
</g>
<g>
	<path class="st0" d="M598,4.5h99c30.4,0,55,24.6,55,55v243c0,30.4-24.6,55-55,55h-99c-30.4,0-55-24.6-55-55v-243
		C543,29.2,567.6,4.5,598,4.5z"/>
	<path class="st1" d="M598,9h99c27.9,0,50.5,22.6,50.5,50.5v243c0,27.9-22.6,50.5-50.5,50.5h-99c-27.9,0-50.5-22.6-50.5-50.5v-243
		C547.5,31.6,570.1,9,598,9z"/>
</g>
<g>
	<path class="st0" d="M634,4.5h99c30.4,0,55,24.6,55,55v243c0,30.4-24.6,55-55,55h-99c-30.4,0-55-24.6-55-55v-243
		C579,29.2,603.6,4.5,634,4.5z"/>
	<path class="st1" d="M634,9h99c27.9,0,50.5,22.6,50.5,50.5v243c0,27.9-22.6,50.5-50.5,50.5h-99c-27.9,0-50.5-22.6-50.5-50.5v-243
		C583.5,31.6,606.1,9,634,9z"/>
</g>
<g>
	<path class="st0" d="M670,4.5h99c30.4,0,55,24.6,55,55v243c0,30.4-24.6,55-55,55h-99c-30.4,0-55-24.6-55-55v-243
		C615,29.2,639.6,4.5,670,4.5z"/>
	<path class="st1" d="M670,9h99c27.9,0,50.5,22.6,50.5,50.5v243c0,27.9-22.6,50.5-50.5,50.5h-99c-27.9,0-50.5-22.6-50.5-50.5v-243
		C619.5,31.6,642.1,9,670,9z"/>
</g>
<g>
	<path class="st0" d="M706,4.5h99c30.4,0,55,24.6,55,55v243c0,30.4-24.6,55-55,55h-99c-30.4,0-55-24.6-55-55v-243
		C651,29.2,675.6,4.5,706,4.5z"/>
	<path class="st1" d="M706,9h99c27.9,0,50.5,22.6,50.5,50.5v243c0,27.9-22.6,50.5-50.5,50.5h-99c-27.9,0-50.5-22.6-50.5-50.5v-243
		C655.5,31.6,678.1,9,706,9z"/>
</g>
<g>
	<path class="st0" d="M742,4.5h99c30.4,0,55,24.6,55,55v243c0,30.4-24.6,55-55,55h-99c-30.4,0-55-24.6-55-55v-243
		C687,29.2,711.6,4.5,742,4.5z"/>
	<path class="st1" d="M742,9h99c27.9,0,50.5,22.6,50.5,50.5v243c0,27.9-22.6,50.5-50.5,50.5h-99c-27.9,0-50.5-22.6-50.5-50.5v-243
		C691.5,31.6,714.1,9,742,9z"/>
</g>
<g>
	<path class="st0" d="M778,4.5h99c30.4,0,55,24.6,55,55v243c0,30.4-24.6,55-55,55h-99c-30.4,0-55-24.6-55-55v-243
		C723,29.2,747.6,4.5,778,4.5z"/>
	<path class="st1" d="M778,9h99c27.9,0,50.5,22.6,50.5,50.5v243c0,27.9-22.6,50.5-50.5,50.5h-99c-27.9,0-50.5-22.6-50.5-50.5v-243
		C727.5,31.6,750.1,9,778,9z"/>
</g>
<g>
	<path class="st0" d="M814,4.5h99c30.4,0,55,24.6,55,55v243c0,30.4-24.6,55-55,55h-99c-30.4,0-55-24.6-55-55v-243
		C759,29.2,783.6,4.5,814,4.5z"/>
	<path class="st1" d="M814,9h99c27.9,0,50.5,22.6,50.5,50.5v243c0,27.9-22.6,50.5-50.5,50.5h-99c-27.9,0-50.5-22.6-50.5-50.5v-243
		C763.5,31.6,786.1,9,814,9z"/>
</g>
<g>
	<path class="st0" d="M850,4.5h99c30.4,0,55,24.6,55,55v243c0,30.4-24.6,55-55,55h-99c-30.4,0-55-24.6-55-55v-243
		C795,29.2,819.6,4.5,850,4.5z"/>
	<path class="st1" d="M850,9h99c27.9,0,50.5,22.6,50.5,50.5v243c0,27.9-22.6,50.5-50.5,50.5h-99c-27.9,0-50.5-22.6-50.5-50.5v-243
		C799.5,31.6,822.1,9,850,9z"/>
</g>
<g>
	<path class="st0" d="M886,4.5h99c30.4,0,55,24.6,55,55v243c0,30.4-24.6,55-55,55h-99c-30.4,0-55-24.6-55-55v-243
		C831,29.2,855.6,4.5,886,4.5z"/>
	<path class="st1" d="M886,9h99c27.9,0,50.5,22.6,50.5,50.5v243c0,27.9-22.6,50.5-50.5,50.5h-99c-27.9,0-50.5-22.6-50.5-50.5v-243
		C835.5,31.6,858.1,9,886,9z"/>
</g>
<g>
	<path class="st0" d="M922,4.5h99c30.4,0,55,24.6,55,55v243c0,30.4-24.6,55-55,55h-99c-30.4,0-55-24.6-55-55v-243
		C867,29.2,891.6,4.5,922,4.5z"/>
	<path class="st1" d="M922,9h99c27.9,0,50.5,22.6,50.5,50.5v243c0,27.9-22.6,50.5-50.5,50.5h-99c-27.9,0-50.5-22.6-50.5-50.5v-243
		C871.5,31.6,894.1,9,922,9z"/>
</g>
<g>
	<path class="st0" d="M958,4.5h99c30.4,0,55,24.6,55,55v243c0,30.4-24.6,55-55,55h-99c-30.4,0-55-24.6-55-55v-243
		C903,29.2,927.6,4.5,958,4.5z"/>
	<path class="st1" d="M958,9h99c27.9,0,50.5,22.6,50.5,50.5v243c0,27.9-22.6,50.5-50.5,50.5h-99c-27.9,0-50.5-22.6-50.5-50.5v-243
		C907.5,31.6,930.1,9,958,9z"/>
</g>
<g>
	<path class="st0" d="M994,4.5h99c30.4,0,55,24.6,55,55v243c0,30.4-24.6,55-55,55h-99c-30.4,0-55-24.6-55-55v-243
		C939,29.2,963.6,4.5,994,4.5z"/>
	<path class="st1" d="M994,9h99c27.9,0,50.5,22.6,50.5,50.5v243c0,27.9-22.6,50.5-50.5,50.5h-99c-27.9,0-50.5-22.6-50.5-50.5v-243
		C943.5,31.6,966.1,9,994,9z"/>
</g>
</svg>
